<svg xmlns="http://www.w3.org/2000/svg" viewBox="0 0 985.00 390.00">
  <style>
    .key-bg { fill: #f5f5f5; stroke: #d4d4d4; stroke-width: 1; }
    .key-index { fill: #171717; font-family: ui-monospace, SFMono-Regular, "SF Mono", Menlo, Consolas, "Liberation Mono", monospace; font-weight: 700; text-anchor: middle; dominant-baseline: central; }
    .key-part { font-family: system-ui, -apple-system, BlinkMacSystemFont, "Segoe UI", Roboto, sans-serif; text-anchor: middle; dominant-baseline: central; }
    @media (prefers-color-scheme: dark) {
      .key-bg { fill: #2a2a2a; stroke: #404040; }
      .key-index { fill: #e5e5e5; }
    }
  </style>
  <g>
    <path class="key-bg" d="M 26.00,22.00 L 84.00,22.00 Q 88.00,22.00 88.00,26.00 L 88.00,84.00 Q 88.00,88.00 84.00,88.00 L 26.00,88.00 Q 22.00,88.00 22.00,84.00 L 22.00,26.00 Q 22.00,22.00 26.00,22.00 Z" />
    <path class="key-bg" d="M 96.00,22.00 L 154.00,22.00 Q 158.00,22.00 158.00,26.00 L 158.00,84.00 Q 158.00,88.00 154.00,88.00 L 96.00,88.00 Q 92.00,88.00 92.00,84.00 L 92.00,26.00 Q 92.00,22.00 96.00,22.00 Z" />
    <path class="key-bg" d="M 166.00,22.00 L 224.00,22.00 Q 228.00,22.00 228.00,26.00 L 228.00,84.00 Q 228.00,88.00 224.00,88.00 L 166.00,88.00 Q 162.00,88.00 162.00,84.00 L 162.00,26.00 Q 162.00,22.00 166.00,22.00 Z" />
    <path class="key-bg" d="M 236.00,22.00 L 294.00,22.00 Q 298.00,22.00 298.00,26.00 L 298.00,84.00 Q 298.00,88.00 294.00,88.00 L 236.00,88.00 Q 232.00,88.00 232.00,84.00 L 232.00,26.00 Q 232.00,22.00 236.00,22.00 Z" />
    <path class="key-bg" d="M 306.00,22.00 L 364.00,22.00 Q 368.00,22.00 368.00,26.00 L 368.00,84.00 Q 368.00,88.00 364.00,88.00 L 306.00,88.00 Q 302.00,88.00 302.00,84.00 L 302.00,26.00 Q 302.00,22.00 306.00,22.00 Z" />
    <path class="key-bg" d="M 376.00,22.00 L 434.00,22.00 Q 438.00,22.00 438.00,26.00 L 438.00,84.00 Q 438.00,88.00 434.00,88.00 L 376.00,88.00 Q 372.00,88.00 372.00,84.00 L 372.00,26.00 Q 372.00,22.00 376.00,22.00 Z" />
    <path class="key-bg" d="M 551.00,22.00 L 609.00,22.00 Q 613.00,22.00 613.00,26.00 L 613.00,84.00 Q 613.00,88.00 609.00,88.00 L 551.00,88.00 Q 547.00,88.00 547.00,84.00 L 547.00,26.00 Q 547.00,22.00 551.00,22.00 Z" />
    <path class="key-bg" d="M 621.00,22.00 L 679.00,22.00 Q 683.00,22.00 683.00,26.00 L 683.00,84.00 Q 683.00,88.00 679.00,88.00 L 621.00,88.00 Q 617.00,88.00 617.00,84.00 L 617.00,26.00 Q 617.00,22.00 621.00,22.00 Z" />
    <path class="key-bg" d="M 691.00,22.00 L 749.00,22.00 Q 753.00,22.00 753.00,26.00 L 753.00,84.00 Q 753.00,88.00 749.00,88.00 L 691.00,88.00 Q 687.00,88.00 687.00,84.00 L 687.00,26.00 Q 687.00,22.00 691.00,22.00 Z" />
    <path class="key-bg" d="M 761.00,22.00 L 819.00,22.00 Q 823.00,22.00 823.00,26.00 L 823.00,84.00 Q 823.00,88.00 819.00,88.00 L 761.00,88.00 Q 757.00,88.00 757.00,84.00 L 757.00,26.00 Q 757.00,22.00 761.00,22.00 Z" />
    <path class="key-bg" d="M 831.00,22.00 L 889.00,22.00 Q 893.00,22.00 893.00,26.00 L 893.00,84.00 Q 893.00,88.00 889.00,88.00 L 831.00,88.00 Q 827.00,88.00 827.00,84.00 L 827.00,26.00 Q 827.00,22.00 831.00,22.00 Z" />
    <path class="key-bg" d="M 901.00,22.00 L 959.00,22.00 Q 963.00,22.00 963.00,26.00 L 963.00,84.00 Q 963.00,88.00 959.00,88.00 L 901.00,88.00 Q 897.00,88.00 897.00,84.00 L 897.00,26.00 Q 897.00,22.00 901.00,22.00 Z" />
    <path class="key-bg" d="M 26.00,92.00 L 84.00,92.00 Q 88.00,92.00 88.00,96.00 L 88.00,154.00 Q 88.00,158.00 84.00,158.00 L 26.00,158.00 Q 22.00,158.00 22.00,154.00 L 22.00,96.00 Q 22.00,92.00 26.00,92.00 Z" />
    <path class="key-bg" d="M 96.00,92.00 L 154.00,92.00 Q 158.00,92.00 158.00,96.00 L 158.00,154.00 Q 158.00,158.00 154.00,158.00 L 96.00,158.00 Q 92.00,158.00 92.00,154.00 L 92.00,96.00 Q 92.00,92.00 96.00,92.00 Z" />
    <path class="key-bg" d="M 166.00,92.00 L 224.00,92.00 Q 228.00,92.00 228.00,96.00 L 228.00,154.00 Q 228.00,158.00 224.00,158.00 L 166.00,158.00 Q 162.00,158.00 162.00,154.00 L 162.00,96.00 Q 162.00,92.00 166.00,92.00 Z" />
    <path class="key-bg" d="M 236.00,92.00 L 294.00,92.00 Q 298.00,92.00 298.00,96.00 L 298.00,154.00 Q 298.00,158.00 294.00,158.00 L 236.00,158.00 Q 232.00,158.00 232.00,154.00 L 232.00,96.00 Q 232.00,92.00 236.00,92.00 Z" />
    <path class="key-bg" d="M 306.00,92.00 L 364.00,92.00 Q 368.00,92.00 368.00,96.00 L 368.00,154.00 Q 368.00,158.00 364.00,158.00 L 306.00,158.00 Q 302.00,158.00 302.00,154.00 L 302.00,96.00 Q 302.00,92.00 306.00,92.00 Z" />
    <path class="key-bg" d="M 376.00,92.00 L 434.00,92.00 Q 438.00,92.00 438.00,96.00 L 438.00,154.00 Q 438.00,158.00 434.00,158.00 L 376.00,158.00 Q 372.00,158.00 372.00,154.00 L 372.00,96.00 Q 372.00,92.00 376.00,92.00 Z" />
    <path class="key-bg" d="M 551.00,92.00 L 609.00,92.00 Q 613.00,92.00 613.00,96.00 L 613.00,154.00 Q 613.00,158.00 609.00,158.00 L 551.00,158.00 Q 547.00,158.00 547.00,154.00 L 547.00,96.00 Q 547.00,92.00 551.00,92.00 Z" />
    <path class="key-bg" d="M 621.00,92.00 L 679.00,92.00 Q 683.00,92.00 683.00,96.00 L 683.00,154.00 Q 683.00,158.00 679.00,158.00 L 621.00,158.00 Q 617.00,158.00 617.00,154.00 L 617.00,96.00 Q 617.00,92.00 621.00,92.00 Z" />
    <path class="key-bg" d="M 691.00,92.00 L 749.00,92.00 Q 753.00,92.00 753.00,96.00 L 753.00,154.00 Q 753.00,158.00 749.00,158.00 L 691.00,158.00 Q 687.00,158.00 687.00,154.00 L 687.00,96.00 Q 687.00,92.00 691.00,92.00 Z" />
    <path class="key-bg" d="M 761.00,92.00 L 819.00,92.00 Q 823.00,92.00 823.00,96.00 L 823.00,154.00 Q 823.00,158.00 819.00,158.00 L 761.00,158.00 Q 757.00,158.00 757.00,154.00 L 757.00,96.00 Q 757.00,92.00 761.00,92.00 Z" />
    <path class="key-bg" d="M 831.00,92.00 L 889.00,92.00 Q 893.00,92.00 893.00,96.00 L 893.00,154.00 Q 893.00,158.00 889.00,158.00 L 831.00,158.00 Q 827.00,158.00 827.00,154.00 L 827.00,96.00 Q 827.00,92.00 831.00,92.00 Z" />
    <path class="key-bg" d="M 901.00,92.00 L 959.00,92.00 Q 963.00,92.00 963.00,96.00 L 963.00,154.00 Q 963.00,158.00 959.00,158.00 L 901.00,158.00 Q 897.00,158.00 897.00,154.00 L 897.00,96.00 Q 897.00,92.00 901.00,92.00 Z" />
    <path class="key-bg" d="M 26.00,162.00 L 84.00,162.00 Q 88.00,162.00 88.00,166.00 L 88.00,224.00 Q 88.00,228.00 84.00,228.00 L 26.00,228.00 Q 22.00,228.00 22.00,224.00 L 22.00,166.00 Q 22.00,162.00 26.00,162.00 Z" />
    <path class="key-bg" d="M 96.00,162.00 L 154.00,162.00 Q 158.00,162.00 158.00,166.00 L 158.00,224.00 Q 158.00,228.00 154.00,228.00 L 96.00,228.00 Q 92.00,228.00 92.00,224.00 L 92.00,166.00 Q 92.00,162.00 96.00,162.00 Z" />
    <path class="key-bg" d="M 166.00,162.00 L 224.00,162.00 Q 228.00,162.00 228.00,166.00 L 228.00,224.00 Q 228.00,228.00 224.00,228.00 L 166.00,228.00 Q 162.00,228.00 162.00,224.00 L 162.00,166.00 Q 162.00,162.00 166.00,162.00 Z" />
    <path class="key-bg" d="M 236.00,162.00 L 294.00,162.00 Q 298.00,162.00 298.00,166.00 L 298.00,224.00 Q 298.00,228.00 294.00,228.00 L 236.00,228.00 Q 232.00,228.00 232.00,224.00 L 232.00,166.00 Q 232.00,162.00 236.00,162.00 Z" />
    <path class="key-bg" d="M 306.00,162.00 L 364.00,162.00 Q 368.00,162.00 368.00,166.00 L 368.00,224.00 Q 368.00,228.00 364.00,228.00 L 306.00,228.00 Q 302.00,228.00 302.00,224.00 L 302.00,166.00 Q 302.00,162.00 306.00,162.00 Z" />
    <path class="key-bg" d="M 376.00,162.00 L 434.00,162.00 Q 438.00,162.00 438.00,166.00 L 438.00,224.00 Q 438.00,228.00 434.00,228.00 L 376.00,228.00 Q 372.00,228.00 372.00,224.00 L 372.00,166.00 Q 372.00,162.00 376.00,162.00 Z" />
    <path class="key-bg" d="M 551.00,162.00 L 609.00,162.00 Q 613.00,162.00 613.00,166.00 L 613.00,224.00 Q 613.00,228.00 609.00,228.00 L 551.00,228.00 Q 547.00,228.00 547.00,224.00 L 547.00,166.00 Q 547.00,162.00 551.00,162.00 Z" />
    <path class="key-bg" d="M 621.00,162.00 L 679.00,162.00 Q 683.00,162.00 683.00,166.00 L 683.00,224.00 Q 683.00,228.00 679.00,228.00 L 621.00,228.00 Q 617.00,228.00 617.00,224.00 L 617.00,166.00 Q 617.00,162.00 621.00,162.00 Z" />
    <path class="key-bg" d="M 691.00,162.00 L 749.00,162.00 Q 753.00,162.00 753.00,166.00 L 753.00,224.00 Q 753.00,228.00 749.00,228.00 L 691.00,228.00 Q 687.00,228.00 687.00,224.00 L 687.00,166.00 Q 687.00,162.00 691.00,162.00 Z" />
    <path class="key-bg" d="M 761.00,162.00 L 819.00,162.00 Q 823.00,162.00 823.00,166.00 L 823.00,224.00 Q 823.00,228.00 819.00,228.00 L 761.00,228.00 Q 757.00,228.00 757.00,224.00 L 757.00,166.00 Q 757.00,162.00 761.00,162.00 Z" />
    <path class="key-bg" d="M 831.00,162.00 L 889.00,162.00 Q 893.00,162.00 893.00,166.00 L 893.00,224.00 Q 893.00,228.00 889.00,228.00 L 831.00,228.00 Q 827.00,228.00 827.00,224.00 L 827.00,166.00 Q 827.00,162.00 831.00,162.00 Z" />
    <path class="key-bg" d="M 901.00,162.00 L 959.00,162.00 Q 963.00,162.00 963.00,166.00 L 963.00,224.00 Q 963.00,228.00 959.00,228.00 L 901.00,228.00 Q 897.00,228.00 897.00,224.00 L 897.00,166.00 Q 897.00,162.00 901.00,162.00 Z" />
    <path class="key-bg" d="M 26.00,232.00 L 84.00,232.00 Q 88.00,232.00 88.00,236.00 L 88.00,294.00 Q 88.00,298.00 84.00,298.00 L 26.00,298.00 Q 22.00,298.00 22.00,294.00 L 22.00,236.00 Q 22.00,232.00 26.00,232.00 Z" />
    <path class="key-bg" d="M 96.00,232.00 L 154.00,232.00 Q 158.00,232.00 158.00,236.00 L 158.00,294.00 Q 158.00,298.00 154.00,298.00 L 96.00,298.00 Q 92.00,298.00 92.00,294.00 L 92.00,236.00 Q 92.00,232.00 96.00,232.00 Z" />
    <path class="key-bg" d="M 166.00,232.00 L 224.00,232.00 Q 228.00,232.00 228.00,236.00 L 228.00,294.00 Q 228.00,298.00 224.00,298.00 L 166.00,298.00 Q 162.00,298.00 162.00,294.00 L 162.00,236.00 Q 162.00,232.00 166.00,232.00 Z" />
    <path class="key-bg" d="M 236.00,232.00 L 294.00,232.00 Q 298.00,232.00 298.00,236.00 L 298.00,294.00 Q 298.00,298.00 294.00,298.00 L 236.00,298.00 Q 232.00,298.00 232.00,294.00 L 232.00,236.00 Q 232.00,232.00 236.00,232.00 Z" />
    <path class="key-bg" d="M 306.00,232.00 L 364.00,232.00 Q 368.00,232.00 368.00,236.00 L 368.00,294.00 Q 368.00,298.00 364.00,298.00 L 306.00,298.00 Q 302.00,298.00 302.00,294.00 L 302.00,236.00 Q 302.00,232.00 306.00,232.00 Z" />
    <path class="key-bg" d="M 376.00,232.00 L 434.00,232.00 Q 438.00,232.00 438.00,236.00 L 438.00,294.00 Q 438.00,298.00 434.00,298.00 L 376.00,298.00 Q 372.00,298.00 372.00,294.00 L 372.00,236.00 Q 372.00,232.00 376.00,232.00 Z" />
    <path class="key-bg" d="M 551.00,232.00 L 609.00,232.00 Q 613.00,232.00 613.00,236.00 L 613.00,294.00 Q 613.00,298.00 609.00,298.00 L 551.00,298.00 Q 547.00,298.00 547.00,294.00 L 547.00,236.00 Q 547.00,232.00 551.00,232.00 Z" />
    <path class="key-bg" d="M 621.00,232.00 L 679.00,232.00 Q 683.00,232.00 683.00,236.00 L 683.00,294.00 Q 683.00,298.00 679.00,298.00 L 621.00,298.00 Q 617.00,298.00 617.00,294.00 L 617.00,236.00 Q 617.00,232.00 621.00,232.00 Z" />
    <path class="key-bg" d="M 691.00,232.00 L 749.00,232.00 Q 753.00,232.00 753.00,236.00 L 753.00,294.00 Q 753.00,298.00 749.00,298.00 L 691.00,298.00 Q 687.00,298.00 687.00,294.00 L 687.00,236.00 Q 687.00,232.00 691.00,232.00 Z" />
    <path class="key-bg" d="M 761.00,232.00 L 819.00,232.00 Q 823.00,232.00 823.00,236.00 L 823.00,294.00 Q 823.00,298.00 819.00,298.00 L 761.00,298.00 Q 757.00,298.00 757.00,294.00 L 757.00,236.00 Q 757.00,232.00 761.00,232.00 Z" />
    <path class="key-bg" d="M 831.00,232.00 L 889.00,232.00 Q 893.00,232.00 893.00,236.00 L 893.00,294.00 Q 893.00,298.00 889.00,298.00 L 831.00,298.00 Q 827.00,298.00 827.00,294.00 L 827.00,236.00 Q 827.00,232.00 831.00,232.00 Z" />
    <path class="key-bg" d="M 901.00,232.00 L 959.00,232.00 Q 963.00,232.00 963.00,236.00 L 963.00,294.00 Q 963.00,298.00 959.00,298.00 L 901.00,298.00 Q 897.00,298.00 897.00,294.00 L 897.00,236.00 Q 897.00,232.00 901.00,232.00 Z" />
    <path class="key-bg" d="M 218.50,302.00 L 276.50,302.00 Q 280.50,302.00 280.50,306.00 L 280.50,364.00 Q 280.50,368.00 276.50,368.00 L 218.50,368.00 Q 214.50,368.00 214.50,364.00 L 214.50,306.00 Q 214.50,302.00 218.50,302.00 Z" />
    <path class="key-bg" d="M 288.50,302.00 L 346.50,302.00 Q 350.50,302.00 350.50,306.00 L 350.50,364.00 Q 350.50,368.00 346.50,368.00 L 288.50,368.00 Q 284.50,368.00 284.50,364.00 L 284.50,306.00 Q 284.50,302.00 288.50,302.00 Z" />
    <path class="key-bg" d="M 358.50,302.00 L 434.00,302.00 Q 438.00,302.00 438.00,306.00 L 438.00,364.00 Q 438.00,368.00 434.00,368.00 L 358.50,368.00 Q 354.50,368.00 354.50,364.00 L 354.50,306.00 Q 354.50,302.00 358.50,302.00 Z" />
    <path class="key-bg" d="M 551.00,302.00 L 626.50,302.00 Q 630.50,302.00 630.50,306.00 L 630.50,364.00 Q 630.50,368.00 626.50,368.00 L 551.00,368.00 Q 547.00,368.00 547.00,364.00 L 547.00,306.00 Q 547.00,302.00 551.00,302.00 Z" />
    <path class="key-bg" d="M 638.50,302.00 L 696.50,302.00 Q 700.50,302.00 700.50,306.00 L 700.50,364.00 Q 700.50,368.00 696.50,368.00 L 638.50,368.00 Q 634.50,368.00 634.50,364.00 L 634.50,306.00 Q 634.50,302.00 638.50,302.00 Z" />
    <path class="key-bg" d="M 708.50,302.00 L 766.50,302.00 Q 770.50,302.00 770.50,306.00 L 770.50,364.00 Q 770.50,368.00 766.50,368.00 L 708.50,368.00 Q 704.50,368.00 704.50,364.00 L 704.50,306.00 Q 704.50,302.00 708.50,302.00 Z" />
  </g>
  <g>
    <text class="key-index" x="55.00" y="55.00" font-size="36">0</text>
    <text class="key-index" x="125.00" y="55.00" font-size="36">1</text>
    <text class="key-index" x="195.00" y="55.00" font-size="36">2</text>
    <text class="key-index" x="265.00" y="55.00" font-size="36">3</text>
    <text class="key-index" x="335.00" y="55.00" font-size="36">4</text>
    <text class="key-index" x="405.00" y="55.00" font-size="36">5</text>
    <text class="key-index" x="580.00" y="55.00" font-size="36">6</text>
    <text class="key-index" x="650.00" y="55.00" font-size="36">7</text>
    <text class="key-index" x="720.00" y="55.00" font-size="36">8</text>
    <text class="key-index" x="790.00" y="55.00" font-size="36">9</text>
    <text class="key-index" x="860.00" y="55.00" font-size="36">10</text>
    <text class="key-index" x="930.00" y="55.00" font-size="36">11</text>
    <text class="key-index" x="55.00" y="125.00" font-size="36">12</text>
    <text class="key-index" x="125.00" y="125.00" font-size="36">13</text>
    <text class="key-index" x="195.00" y="125.00" font-size="36">14</text>
    <text class="key-index" x="265.00" y="125.00" font-size="36">15</text>
    <text class="key-index" x="335.00" y="125.00" font-size="36">16</text>
    <text class="key-index" x="405.00" y="125.00" font-size="36">17</text>
    <text class="key-index" x="580.00" y="125.00" font-size="36">18</text>
    <text class="key-index" x="650.00" y="125.00" font-size="36">19</text>
    <text class="key-index" x="720.00" y="125.00" font-size="36">20</text>
    <text class="key-index" x="790.00" y="125.00" font-size="36">21</text>
    <text class="key-index" x="860.00" y="125.00" font-size="36">22</text>
    <text class="key-index" x="930.00" y="125.00" font-size="36">23</text>
    <text class="key-index" x="55.00" y="195.00" font-size="36">24</text>
    <text class="key-index" x="125.00" y="195.00" font-size="36">25</text>
    <text class="key-index" x="195.00" y="195.00" font-size="36">26</text>
    <text class="key-index" x="265.00" y="195.00" font-size="36">27</text>
    <text class="key-index" x="335.00" y="195.00" font-size="36">28</text>
    <text class="key-index" x="405.00" y="195.00" font-size="36">29</text>
    <text class="key-index" x="580.00" y="195.00" font-size="36">30</text>
    <text class="key-index" x="650.00" y="195.00" font-size="36">31</text>
    <text class="key-index" x="720.00" y="195.00" font-size="36">32</text>
    <text class="key-index" x="790.00" y="195.00" font-size="36">33</text>
    <text class="key-index" x="860.00" y="195.00" font-size="36">34</text>
    <text class="key-index" x="930.00" y="195.00" font-size="36">35</text>
    <text class="key-index" x="55.00" y="265.00" font-size="36">36</text>
    <text class="key-index" x="125.00" y="265.00" font-size="36">37</text>
    <text class="key-index" x="195.00" y="265.00" font-size="36">38</text>
    <text class="key-index" x="265.00" y="265.00" font-size="36">39</text>
    <text class="key-index" x="335.00" y="265.00" font-size="36">40</text>
    <text class="key-index" x="405.00" y="265.00" font-size="36">41</text>
    <text class="key-index" x="580.00" y="265.00" font-size="36">42</text>
    <text class="key-index" x="650.00" y="265.00" font-size="36">43</text>
    <text class="key-index" x="720.00" y="265.00" font-size="36">44</text>
    <text class="key-index" x="790.00" y="265.00" font-size="36">45</text>
    <text class="key-index" x="860.00" y="265.00" font-size="36">46</text>
    <text class="key-index" x="930.00" y="265.00" font-size="36">47</text>
    <text class="key-index" x="247.50" y="335.00" font-size="36">48</text>
    <text class="key-index" x="317.50" y="335.00" font-size="36">49</text>
    <text class="key-index" x="396.25" y="335.00" font-size="36">50</text>
    <text class="key-index" x="588.75" y="335.00" font-size="36">51</text>
    <text class="key-index" x="667.50" y="335.00" font-size="36">52</text>
    <text class="key-index" x="737.50" y="335.00" font-size="36">53</text>
  </g>
</svg>
